<?xml version="1.0" encoding="UTF-8" standalone="yes"?>
<!DOCTYPE svg PUBLIC "-//W3C//DTD SVG 1.1//EN" "http://www.w3.org/Graphics/SVG/1.1/DTD/svg11.dtd">

<svg width="31" height="48" viewBox="0 0 31 48" xmlns="http://www.w3.org/2000/svg" xmlns:xlink="http://www.w3.org/1999/xlink" version="1.1" baseProfile="full">
    <g transform="scale(0.702128,-0.702128) translate(0,-69)">
        <path d="M 35.200000 1.000000 L 29.400000 1.000000 L 22.850000 22.600000 L 16.300000 1.000000 L 10.500000 1.000000 L 1.000000 36.600000 L 8.250000 36.600000 L 13.750000 14.150000 L 20.250000 36.600000 L 25.450000 36.600000 L 31.950000 14.150000 L 37.500000 36.600000 L 44.750000 36.600000 Z" transform="scale(1.000000,1.000000) translate(-0.604138,-0.764253)" fill="#3ccfb6" opacity="1.000000"></path>
        <path d="M 8.613600 9.534600 L 8.613600 17.578000 Q 8.613600 20.341000 10.210000 22.060201 Q 11.806400 23.779401 14.385200 23.779401 Q 16.964000 23.779401 18.560400 22.060201 Q 20.156800 20.341000 20.156800 17.578000 L 20.156800 17.271000 L 30.472001 17.271000 L 44.716801 24.209201 L 44.716801 34.094601 L 25.867001 24.332001 Q 24.639001 27.770401 21.876001 29.919401 Q 18.744600 32.314001 14.385200 32.314001 Q 8.675000 32.314001 4.929600 28.568601 Q 1.000000 24.639001 1.000000 18.130600 L 1.000000 1.000000 L 44.716801 1.000000 L 44.716801 9.534600 Z" transform="scale(1.000000,1.000000) translate(-0.570939,34.835747)" fill="#3ccfb6" opacity="1.000000"></path>
    </g>
</svg>