<?xml version="1.0" encoding="UTF-8" standalone="yes"?>
<!DOCTYPE svg PUBLIC "-//W3C//DTD SVG 1.1//EN" "http://www.w3.org/Graphics/SVG/1.1/DTD/svg11.dtd">

<svg width="33" height="50" viewBox="0 0 33 50" xmlns="http://www.w3.org/2000/svg" xmlns:xlink="http://www.w3.org/1999/xlink" version="1.1" baseProfile="full">
    <g transform="scale(0.702128,-0.702128) translate(0,-72)">
        <path d="M 35.200000 1.000000 L 29.400000 1.000000 L 22.850000 22.600000 L 16.300000 1.000000 L 10.500000 1.000000 L 1.000000 36.600000 L 8.250000 36.600000 L 13.750000 14.150000 L 20.250000 36.600000 L 25.450000 36.600000 L 31.950000 14.150000 L 37.500000 36.600000 L 44.750000 36.600000 Z" transform="scale(1.000000,1.000000) translate(0.395862,0.692506)" fill="#3ccfb6" opacity="0.000000"></path>
        <path d="M 18.278642 2.642542 L 18.417842 2.715142 L 18.527742 2.827242 L 18.598442 2.971642 L 24.670042 22.993842 L 30.741542 2.971642 L 30.812242 2.827242 L 30.922142 2.715142 L 31.061342 2.642542 L 31.220042 2.616742 L 37.020042 2.616742 L 37.182642 2.643842 L 37.324342 2.719942 L 37.434542 2.837042 L 37.502942 2.987142 L 47.052942 38.587142 L 47.059642 38.819542 L 46.966742 39.021042 L 46.796142 39.162942 L 46.570042 39.216742 L 39.320042 39.216742 L 39.154942 39.188742 L 39.011742 39.110342 L 38.901442 38.990242 L 38.834642 38.836642 L 33.731942 18.195942 L 27.750242 38.855742 L 27.680442 39.002342 L 27.570342 39.116442 L 27.430242 39.190342 L 27.270042 39.216742 L 22.070042 39.216742 L 21.909742 39.190342 L 21.769642 39.116442 L 21.659542 39.002342 L 21.589742 38.855742 L 15.610242 18.203542 L 10.555642 38.835642 L 10.489042 38.989542 L 10.378642 39.110042 L 10.235342 39.188642 L 10.070042 39.216742 L 2.820042 39.216742 L 2.593942 39.163042 L 2.423442 39.021242 L 2.330442 38.819942 L 2.336942 38.587742 L 11.836942 2.987742 L 11.905142 2.837442 L 12.015442 2.720142 L 12.157142 2.643942 L 12.320042 2.616742 L 18.120042 2.616742 Z M 15.570042 16.266742 L 22.070042 38.716742 L 27.270042 38.716742 L 33.770042 16.266742 L 39.320042 38.716742 L 46.570042 38.716742 L 37.020042 3.116742 L 31.220042 3.116742 L 24.670042 24.716742 L 18.120042 3.116742 L 12.320042 3.116742 L 2.820042 38.716742 L 10.070042 38.716742 Z" transform="scale(1.000000,1.000000) translate(-1.424242,-1.424242)" fill="#3ccfb6" opacity="1.000000"></path>
        <path d="M 8.613600 9.534600 L 8.613600 17.578000 Q 8.613600 20.341000 10.210000 22.060201 Q 11.806400 23.779401 14.385200 23.779401 Q 16.964000 23.779401 18.560400 22.060201 Q 20.156800 20.341000 20.156800 17.578000 L 20.156800 17.271000 L 30.472001 17.271000 L 44.716801 24.209201 L 44.716801 34.094601 L 25.867001 24.332001 Q 24.639001 27.770401 21.876001 29.919401 Q 18.744600 32.314001 14.385200 32.314001 Q 8.675000 32.314001 4.929600 28.568601 Q 1.000000 24.639001 1.000000 18.130600 L 1.000000 1.000000 L 44.716801 1.000000 L 44.716801 9.534600 Z" transform="scale(1.000000,1.000000) translate(0.429061,36.835747)" fill="#3ccfb6" opacity="0.000000"></path>
        <path d="M 46.764642 1.768839 L 46.923542 1.876039 L 47.030742 2.034939 L 47.070042 2.229639 L 47.070042 10.764239 L 47.030742 10.958839 L 46.923542 11.117739 L 46.764642 11.224939 L 46.570042 11.264239 L 10.966842 11.264239 L 10.966742 18.798539 L 10.971542 19.111039 L 11.016642 19.728239 L 11.107442 20.310039 L 11.243442 20.857639 L 11.423942 21.371939 L 11.649242 21.854639 L 11.919742 22.307039 L 12.244742 22.739939 L 12.420842 22.940339 L 12.595842 23.121739 L 12.983142 23.464439 L 13.396742 23.757739 L 13.838442 24.002639 L 14.310042 24.199939 L 14.813242 24.349339 L 15.349442 24.450539 L 15.930442 24.502439 L 16.227842 24.509139 L 16.513342 24.504239 L 17.080242 24.456839 L 17.614142 24.361139 L 18.116442 24.217539 L 18.588842 24.026339 L 19.033142 23.786739 L 19.451142 23.497839 L 19.852542 23.148539 L 20.038742 22.958939 L 20.207842 22.769439 L 20.528242 22.349639 L 20.803442 21.899739 L 21.033842 21.417939 L 21.219642 20.903039 L 21.360342 20.353739 L 21.455342 19.769139 L 21.503842 19.139839 L 21.510042 18.807639 L 21.510042 18.500639 L 21.549242 18.305939 L 21.656442 18.147039 L 21.815342 18.039839 L 22.010042 18.000639 L 32.325242 18.000639 L 32.544142 18.051039 L 46.788942 24.989239 L 46.905442 25.067939 L 46.993942 25.173739 L 47.050242 25.299639 L 47.070042 25.438839 L 47.070042 35.324239 L 47.002742 35.575939 L 46.829842 35.751339 L 46.594542 35.824239 L 46.340042 35.768139 L 27.985942 26.262239 L 27.649842 27.035339 L 27.229542 27.845239 L 26.758742 28.614039 L 26.237542 29.341339 L 25.666342 30.026739 L 25.045542 30.669739 L 24.382442 31.264539 L 24.024542 31.552439 L 23.601842 31.860539 L 22.743242 32.405939 L 21.844442 32.873339 L 20.906442 33.262139 L 19.930042 33.572539 L 18.916142 33.804439 L 17.865442 33.958139 L 16.787242 34.034139 L 16.233142 34.043539 L 15.862542 34.039439 L 15.142342 34.008839 L 14.436742 33.947939 L 13.745842 33.856539 L 13.069842 33.734639 L 12.408942 33.582139 L 11.763042 33.399139 L 11.132642 33.185439 L 10.517842 32.941139 L 9.918742 32.666439 L 9.335542 32.361039 L 8.768742 32.025439 L 8.218042 31.659539 L 7.683842 31.263639 L 7.166242 30.837739 L 6.669542 30.386339 L 6.424742 30.147139 L 6.169442 29.884639 L 5.691742 29.353039 L 5.245642 28.800239 L 4.831242 28.226439 L 4.448942 27.631539 L 4.098542 27.016039 L 3.780342 26.380039 L 3.494242 25.723739 L 3.240342 25.047339 L 3.018442 24.351139 L 2.828742 23.635239 L 2.670842 22.899839 L 2.544842 22.144839 L 2.450642 21.370639 L 2.388042 20.577239 L 2.357042 19.769139 L 2.353242 19.360239 L 2.353242 2.229639 L 2.392442 2.034939 L 2.499642 1.876039 L 2.658542 1.768839 L 2.853242 1.729639 L 46.570042 1.729639 Z M 2.853242 2.229639 L 2.853242 19.360239 L 2.857042 19.764539 L 2.887742 20.557939 L 2.949142 21.331139 L 3.041242 22.084239 L 3.164042 22.817239 L 3.317542 23.530039 L 3.501742 24.222739 L 3.716642 24.895239 L 3.962242 25.547639 L 4.238542 26.179839 L 4.545542 26.791939 L 4.883242 27.383839 L 5.251642 27.955639 L 5.650742 28.507239 L 6.080542 29.038739 L 6.541042 29.550139 L 6.782842 29.798239 L 7.018842 30.028639 L 7.502342 30.467539 L 8.001242 30.877239 L 8.515442 31.257639 L 9.045042 31.608739 L 9.589942 31.930639 L 10.150242 32.223239 L 10.725842 32.486539 L 11.316842 32.720639 L 11.923142 32.925539 L 12.544842 33.101039 L 13.181842 33.247339 L 13.834242 33.364439 L 14.501942 33.452239 L 15.185042 33.510739 L 15.883442 33.539939 L 16.238442 33.543639 L 16.778542 33.534239 L 17.830042 33.459439 L 18.843142 33.309839 L 19.817842 33.085339 L 20.754242 32.785939 L 21.652242 32.411839 L 22.511842 31.962839 L 23.333042 31.439039 L 23.729242 31.149039 L 24.068642 30.875339 L 24.711442 30.297839 L 25.306242 29.680039 L 25.853042 29.021839 L 26.351942 28.323439 L 26.802842 27.584739 L 27.205742 26.805739 L 27.560742 25.986439 L 27.720242 25.561639 L 46.570042 35.324239 L 46.570042 25.438839 L 32.325242 18.500639 L 22.010042 18.500639 L 22.010042 18.807639 L 22.003842 19.148939 L 21.953942 19.807039 L 21.854142 20.432539 L 21.704542 21.025439 L 21.504942 21.585739 L 21.255542 22.113439 L 20.956142 22.608439 L 20.606942 23.070839 L 20.413642 23.289839 L 20.210242 23.498039 L 19.780442 23.874139 L 19.319942 24.196439 L 18.828742 24.465039 L 18.306842 24.679939 L 17.754242 24.841139 L 17.170942 24.948639 L 16.556942 25.002339 L 16.238442 25.009039 L 15.919942 25.002339 L 15.305942 24.948639 L 14.722642 24.841139 L 14.170042 24.679939 L 13.648142 24.465039 L 13.156942 24.196439 L 12.696442 23.874139 L 12.266642 23.498039 L 12.063242 23.289839 L 11.869942 23.070839 L 11.520742 22.608439 L 11.221442 22.113439 L 10.971942 21.585739 L 10.772442 21.025439 L 10.622742 20.432539 L 10.522942 19.807039 L 10.473042 19.148939 L 10.466842 18.807639 L 10.466842 10.764239 L 46.570042 10.764239 L 46.570042 2.229639 Z" transform="scale(1.000000,1.000000) translate(-1.424242,35.606061)" fill="#3ccfb6" opacity="1.000000"></path>
    </g>
</svg>